<?xml version="1.0" encoding="UTF-8" standalone="no"?>
<!DOCTYPE svg PUBLIC "-//W3C//DTD SVG 1.1//EN"
 "http://www.w3.org/Graphics/SVG/1.1/DTD/svg11.dtd">
<!-- Generated by graphviz version 14.1.5 (20260411.2331)
 -->
<!-- Title: ProjectGraph Pages: 1 -->
<svg width="757pt" height="530pt"
 viewBox="0.00 0.00 757.00 530.00" xmlns="http://www.w3.org/2000/svg" xmlns:xlink="http://www.w3.org/1999/xlink">
<g id="graph0" class="graph" transform="scale(1 1) rotate(0) translate(4 526)">
<title>ProjectGraph</title>
<polygon fill="white" stroke="none" points="-4,4 -4,-526 752.75,-526 752.75,4 -4,4"/>
<!-- frontend/src/App.jsx -->
<g id="node1" class="node">
<title>frontend/src/App.jsx</title>
<path fill="#cfe8ff" stroke="#2b6cb0" stroke-width="2" d="M239.75,-279C239.75,-279 160,-279 160,-279 154,-279 148,-273 148,-267 148,-267 148,-255 148,-255 148,-249 154,-243 160,-243 160,-243 239.75,-243 239.75,-243 245.75,-243 251.75,-249 251.75,-255 251.75,-255 251.75,-267 251.75,-267 251.75,-273 245.75,-279 239.75,-279"/>
<text xml:space="preserve" text-anchor="middle" x="199.88" y="-257.12" font-family="Helvetica,sans-Serif" font-size="10.00">frontend/src/App.jsx</text>
</g>
<!-- frontend/src/components/About.jsx -->
<g id="node2" class="node">
<title>frontend/src/components/About.jsx</title>
<path fill="#fff7cc" stroke="#b7791f" d="M460.12,-522C460.12,-522 315.88,-522 315.88,-522 309.88,-522 303.88,-516 303.88,-510 303.88,-510 303.88,-498 303.88,-498 303.88,-492 309.88,-486 315.88,-486 315.88,-486 460.12,-486 460.12,-486 466.12,-486 472.12,-492 472.12,-498 472.12,-498 472.12,-510 472.12,-510 472.12,-516 466.12,-522 460.12,-522"/>
<text xml:space="preserve" text-anchor="middle" x="388" y="-500.12" font-family="Helvetica,sans-Serif" font-size="10.00">frontend/src/components/About.jsx</text>
</g>
<!-- frontend/src/App.jsx&#45;&gt;frontend/src/components/About.jsx -->
<g id="edge1" class="edge">
<title>frontend/src/App.jsx&#45;&gt;frontend/src/components/About.jsx</title>
<path fill="none" stroke="black" d="M248.34,-279.97C251.29,-282.36 253.98,-285.03 256.25,-288 308.18,-355.93 234.55,-413.89 292.25,-477 293.09,-477.92 293.95,-478.8 294.84,-479.66"/>
<polygon fill="black" stroke="black" points="292.34,-482.14 302.34,-485.65 296.71,-476.67 292.34,-482.14"/>
</g>
<!-- frontend/src/components/Contact.jsx -->
<g id="node3" class="node">
<title>frontend/src/components/Contact.jsx</title>
<path fill="#fff7cc" stroke="#b7791f" d="M464.62,-468C464.62,-468 311.38,-468 311.38,-468 305.38,-468 299.38,-462 299.38,-456 299.38,-456 299.38,-444 299.38,-444 299.38,-438 305.38,-432 311.38,-432 311.38,-432 464.62,-432 464.62,-432 470.62,-432 476.62,-438 476.62,-444 476.62,-444 476.62,-456 476.62,-456 476.62,-462 470.62,-468 464.62,-468"/>
<text xml:space="preserve" text-anchor="middle" x="388" y="-446.12" font-family="Helvetica,sans-Serif" font-size="10.00">frontend/src/components/Contact.jsx</text>
</g>
<!-- frontend/src/App.jsx&#45;&gt;frontend/src/components/Contact.jsx -->
<g id="edge2" class="edge">
<title>frontend/src/App.jsx&#45;&gt;frontend/src/components/Contact.jsx</title>
<path fill="none" stroke="black" d="M247.85,-279.96C250.95,-282.36 253.8,-285.03 256.25,-288 295.72,-335.94 248.72,-378.72 292.25,-423 292.86,-423.62 293.48,-424.22 294.11,-424.81"/>
<polygon fill="black" stroke="black" points="291.74,-427.4 301.77,-430.81 296.05,-421.89 291.74,-427.4"/>
</g>
<!-- frontend/src/components/Cursor.jsx -->
<g id="node4" class="node">
<title>frontend/src/components/Cursor.jsx</title>
<path fill="#fff7cc" stroke="#b7791f" d="M461.62,-414C461.62,-414 314.38,-414 314.38,-414 308.38,-414 302.38,-408 302.38,-402 302.38,-402 302.38,-390 302.38,-390 302.38,-384 308.38,-378 314.38,-378 314.38,-378 461.62,-378 461.62,-378 467.62,-378 473.62,-384 473.62,-390 473.62,-390 473.62,-402 473.62,-402 473.62,-408 467.62,-414 461.62,-414"/>
<text xml:space="preserve" text-anchor="middle" x="388" y="-392.12" font-family="Helvetica,sans-Serif" font-size="10.00">frontend/src/components/Cursor.jsx</text>
</g>
<!-- frontend/src/App.jsx&#45;&gt;frontend/src/components/Cursor.jsx -->
<g id="edge3" class="edge">
<title>frontend/src/App.jsx&#45;&gt;frontend/src/components/Cursor.jsx</title>
<path fill="none" stroke="black" d="M246.54,-279.84C250.05,-282.29 253.35,-285 256.25,-288 283.61,-316.35 262.51,-343.17 292.25,-369 293.19,-369.81 294.15,-370.6 295.13,-371.37"/>
<polygon fill="black" stroke="black" points="292.95,-374.12 303.2,-376.79 296.85,-368.31 292.95,-374.12"/>
</g>
<!-- frontend/src/components/Experience.jsx -->
<g id="node5" class="node">
<title>frontend/src/components/Experience.jsx</title>
<path fill="#fff7cc" stroke="#b7791f" d="M471.75,-360C471.75,-360 304.25,-360 304.25,-360 298.25,-360 292.25,-354 292.25,-348 292.25,-348 292.25,-336 292.25,-336 292.25,-330 298.25,-324 304.25,-324 304.25,-324 471.75,-324 471.75,-324 477.75,-324 483.75,-330 483.75,-336 483.75,-336 483.75,-348 483.75,-348 483.75,-354 477.75,-360 471.75,-360"/>
<text xml:space="preserve" text-anchor="middle" x="388" y="-338.12" font-family="Helvetica,sans-Serif" font-size="10.00">frontend/src/components/Experience.jsx</text>
</g>
<!-- frontend/src/App.jsx&#45;&gt;frontend/src/components/Experience.jsx -->
<g id="edge4" class="edge">
<title>frontend/src/App.jsx&#45;&gt;frontend/src/components/Experience.jsx</title>
<path fill="none" stroke="black" d="M241.87,-279.9C246.79,-282.48 251.69,-285.21 256.25,-288 273.32,-298.43 274.33,-306.11 292.25,-315 295.37,-316.55 298.59,-318.02 301.87,-319.42"/>
<polygon fill="black" stroke="black" points="300.56,-322.66 311.15,-323.08 303.13,-316.15 300.56,-322.66"/>
</g>
<!-- frontend/src/components/Footer.jsx -->
<g id="node6" class="node">
<title>frontend/src/components/Footer.jsx</title>
<path fill="#fff7cc" stroke="#b7791f" d="M460.88,-306C460.88,-306 315.12,-306 315.12,-306 309.12,-306 303.12,-300 303.12,-294 303.12,-294 303.12,-282 303.12,-282 303.12,-276 309.12,-270 315.12,-270 315.12,-270 460.88,-270 460.88,-270 466.88,-270 472.88,-276 472.88,-282 472.88,-282 472.88,-294 472.88,-294 472.88,-300 466.88,-306 460.88,-306"/>
<text xml:space="preserve" text-anchor="middle" x="388" y="-284.12" font-family="Helvetica,sans-Serif" font-size="10.00">frontend/src/components/Footer.jsx</text>
</g>
<!-- frontend/src/App.jsx&#45;&gt;frontend/src/components/Footer.jsx -->
<g id="edge5" class="edge">
<title>frontend/src/App.jsx&#45;&gt;frontend/src/components/Footer.jsx</title>
<path fill="none" stroke="black" d="M252.72,-268.52C264.91,-270.29 278.27,-272.23 291.7,-274.18"/>
<polygon fill="black" stroke="black" points="291.07,-277.62 301.47,-275.59 292.08,-270.69 291.07,-277.62"/>
</g>
<!-- frontend/src/components/Hero.jsx -->
<g id="node7" class="node">
<title>frontend/src/components/Hero.jsx</title>
<path fill="#fff7cc" stroke="#b7791f" d="M457.88,-252C457.88,-252 318.12,-252 318.12,-252 312.12,-252 306.12,-246 306.12,-240 306.12,-240 306.12,-228 306.12,-228 306.12,-222 312.12,-216 318.12,-216 318.12,-216 457.88,-216 457.88,-216 463.88,-216 469.88,-222 469.88,-228 469.88,-228 469.88,-240 469.88,-240 469.88,-246 463.88,-252 457.88,-252"/>
<text xml:space="preserve" text-anchor="middle" x="388" y="-230.12" font-family="Helvetica,sans-Serif" font-size="10.00">frontend/src/components/Hero.jsx</text>
</g>
<!-- frontend/src/App.jsx&#45;&gt;frontend/src/components/Hero.jsx -->
<g id="edge6" class="edge">
<title>frontend/src/App.jsx&#45;&gt;frontend/src/components/Hero.jsx</title>
<path fill="none" stroke="black" d="M252.72,-253.48C265.84,-251.58 280.32,-249.48 294.77,-247.38"/>
<polygon fill="black" stroke="black" points="294.91,-250.9 304.3,-246 293.9,-243.97 294.91,-250.9"/>
</g>
<!-- frontend/src/components/Nav.jsx -->
<g id="node8" class="node">
<title>frontend/src/components/Nav.jsx</title>
<path fill="#fff7cc" stroke="#b7791f" d="M455.62,-198C455.62,-198 320.38,-198 320.38,-198 314.38,-198 308.38,-192 308.38,-186 308.38,-186 308.38,-174 308.38,-174 308.38,-168 314.38,-162 320.38,-162 320.38,-162 455.62,-162 455.62,-162 461.62,-162 467.62,-168 467.62,-174 467.62,-174 467.62,-186 467.62,-186 467.62,-192 461.62,-198 455.62,-198"/>
<text xml:space="preserve" text-anchor="middle" x="388" y="-176.12" font-family="Helvetica,sans-Serif" font-size="10.00">frontend/src/components/Nav.jsx</text>
</g>
<!-- frontend/src/App.jsx&#45;&gt;frontend/src/components/Nav.jsx -->
<g id="edge7" class="edge">
<title>frontend/src/App.jsx&#45;&gt;frontend/src/components/Nav.jsx</title>
<path fill="none" stroke="black" d="M241.87,-242.1C246.79,-239.52 251.69,-236.79 256.25,-234 273.32,-223.57 274.33,-215.89 292.25,-207 295.37,-205.45 298.59,-203.98 301.87,-202.58"/>
<polygon fill="black" stroke="black" points="303.13,-205.85 311.15,-198.92 300.56,-199.34 303.13,-205.85"/>
</g>
<!-- frontend/src/components/Projects.jsx -->
<g id="node9" class="node">
<title>frontend/src/components/Projects.jsx</title>
<path fill="#fff7cc" stroke="#b7791f" d="M465.38,-144C465.38,-144 310.62,-144 310.62,-144 304.62,-144 298.62,-138 298.62,-132 298.62,-132 298.62,-120 298.62,-120 298.62,-114 304.62,-108 310.62,-108 310.62,-108 465.38,-108 465.38,-108 471.38,-108 477.38,-114 477.38,-120 477.38,-120 477.38,-132 477.38,-132 477.38,-138 471.38,-144 465.38,-144"/>
<text xml:space="preserve" text-anchor="middle" x="388" y="-122.12" font-family="Helvetica,sans-Serif" font-size="10.00">frontend/src/components/Projects.jsx</text>
</g>
<!-- frontend/src/App.jsx&#45;&gt;frontend/src/components/Projects.jsx -->
<g id="edge8" class="edge">
<title>frontend/src/App.jsx&#45;&gt;frontend/src/components/Projects.jsx</title>
<path fill="none" stroke="black" d="M246.54,-242.16C250.05,-239.71 253.35,-237 256.25,-234 283.61,-205.65 262.51,-178.83 292.25,-153 293.19,-152.19 294.15,-151.4 295.13,-150.63"/>
<polygon fill="black" stroke="black" points="296.85,-153.69 303.2,-145.21 292.95,-147.88 296.85,-153.69"/>
</g>
<!-- frontend/src/components/Stats.jsx -->
<g id="node10" class="node">
<title>frontend/src/components/Stats.jsx</title>
<path fill="#fff7cc" stroke="#b7791f" d="M459,-90C459,-90 317,-90 317,-90 311,-90 305,-84 305,-78 305,-78 305,-66 305,-66 305,-60 311,-54 317,-54 317,-54 459,-54 459,-54 465,-54 471,-60 471,-66 471,-66 471,-78 471,-78 471,-84 465,-90 459,-90"/>
<text xml:space="preserve" text-anchor="middle" x="388" y="-68.12" font-family="Helvetica,sans-Serif" font-size="10.00">frontend/src/components/Stats.jsx</text>
</g>
<!-- frontend/src/App.jsx&#45;&gt;frontend/src/components/Stats.jsx -->
<g id="edge9" class="edge">
<title>frontend/src/App.jsx&#45;&gt;frontend/src/components/Stats.jsx</title>
<path fill="none" stroke="black" d="M247.85,-242.04C250.95,-239.64 253.8,-236.97 256.25,-234 295.72,-186.06 248.72,-143.28 292.25,-99 293.3,-97.94 294.38,-96.91 295.5,-95.93"/>
<polygon fill="black" stroke="black" points="297.51,-98.8 303.48,-90.04 293.35,-93.16 297.51,-98.8"/>
</g>
<!-- frontend/src/lib/useReveal.js -->
<g id="node11" class="node">
<title>frontend/src/lib/useReveal.js</title>
<path fill="#fff7cc" stroke="#b7791f" d="M446.25,-36C446.25,-36 329.75,-36 329.75,-36 323.75,-36 317.75,-30 317.75,-24 317.75,-24 317.75,-12 317.75,-12 317.75,-6 323.75,0 329.75,0 329.75,0 446.25,0 446.25,0 452.25,0 458.25,-6 458.25,-12 458.25,-12 458.25,-24 458.25,-24 458.25,-30 452.25,-36 446.25,-36"/>
<text xml:space="preserve" text-anchor="middle" x="388" y="-14.12" font-family="Helvetica,sans-Serif" font-size="10.00">frontend/src/lib/useReveal.js</text>
</g>
<!-- frontend/src/App.jsx&#45;&gt;frontend/src/lib/useReveal.js -->
<g id="edge10" class="edge">
<title>frontend/src/App.jsx&#45;&gt;frontend/src/lib/useReveal.js</title>
<path fill="none" stroke="black" d="M248.34,-242.03C251.29,-239.64 253.98,-236.97 256.25,-234 308.18,-166.07 234.55,-108.11 292.25,-45 296.69,-40.15 301.93,-36.14 307.63,-32.84"/>
<polygon fill="black" stroke="black" points="308.82,-36.16 316.25,-28.6 305.73,-29.88 308.82,-36.16"/>
</g>
<!-- frontend/src/components/About.module.css -->
<g id="node12" class="node">
<title>frontend/src/components/About.module.css</title>
<path fill="#fff7cc" stroke="#b7791f" d="M725.12,-522C725.12,-522 543.38,-522 543.38,-522 537.38,-522 531.38,-516 531.38,-510 531.38,-510 531.38,-498 531.38,-498 531.38,-492 537.38,-486 543.38,-486 543.38,-486 725.12,-486 725.12,-486 731.12,-486 737.12,-492 737.12,-498 737.12,-498 737.12,-510 737.12,-510 737.12,-516 731.12,-522 725.12,-522"/>
<text xml:space="preserve" text-anchor="middle" x="634.25" y="-500.12" font-family="Helvetica,sans-Serif" font-size="10.00">frontend/src/components/About.module.css</text>
</g>
<!-- frontend/src/components/About.jsx&#45;&gt;frontend/src/components/About.module.css -->
<g id="edge11" class="edge">
<title>frontend/src/components/About.jsx&#45;&gt;frontend/src/components/About.module.css</title>
<path fill="none" stroke="black" d="M472.37,-504C487.76,-504 504.06,-504 520.14,-504"/>
<polygon fill="black" stroke="black" points="519.72,-507.5 529.72,-504 519.72,-500.5 519.72,-507.5"/>
</g>
<!-- frontend/src/components/Contact.module.css -->
<g id="node13" class="node">
<title>frontend/src/components/Contact.module.css</title>
<path fill="#fff7cc" stroke="#b7791f" d="M729.62,-468C729.62,-468 538.88,-468 538.88,-468 532.88,-468 526.88,-462 526.88,-456 526.88,-456 526.88,-444 526.88,-444 526.88,-438 532.88,-432 538.88,-432 538.88,-432 729.62,-432 729.62,-432 735.62,-432 741.62,-438 741.62,-444 741.62,-444 741.62,-456 741.62,-456 741.62,-462 735.62,-468 729.62,-468"/>
<text xml:space="preserve" text-anchor="middle" x="634.25" y="-446.12" font-family="Helvetica,sans-Serif" font-size="10.00">frontend/src/components/Contact.module.css</text>
</g>
<!-- frontend/src/components/Contact.jsx&#45;&gt;frontend/src/components/Contact.module.css -->
<g id="edge12" class="edge">
<title>frontend/src/components/Contact.jsx&#45;&gt;frontend/src/components/Contact.module.css</title>
<path fill="none" stroke="black" d="M476.83,-450C489.32,-450 502.32,-450 515.26,-450"/>
<polygon fill="black" stroke="black" points="515.09,-453.5 525.09,-450 515.09,-446.5 515.09,-453.5"/>
</g>
<!-- frontend/src/components/Experience.module.css -->
<g id="node14" class="node">
<title>frontend/src/components/Experience.module.css</title>
<path fill="#fff7cc" stroke="#b7791f" d="M736.75,-360C736.75,-360 531.75,-360 531.75,-360 525.75,-360 519.75,-354 519.75,-348 519.75,-348 519.75,-336 519.75,-336 519.75,-330 525.75,-324 531.75,-324 531.75,-324 736.75,-324 736.75,-324 742.75,-324 748.75,-330 748.75,-336 748.75,-336 748.75,-348 748.75,-348 748.75,-354 742.75,-360 736.75,-360"/>
<text xml:space="preserve" text-anchor="middle" x="634.25" y="-338.12" font-family="Helvetica,sans-Serif" font-size="10.00">frontend/src/components/Experience.module.css</text>
</g>
<!-- frontend/src/components/Experience.jsx&#45;&gt;frontend/src/components/Experience.module.css -->
<g id="edge13" class="edge">
<title>frontend/src/components/Experience.jsx&#45;&gt;frontend/src/components/Experience.module.css</title>
<path fill="none" stroke="black" d="M484.13,-342C491.96,-342 499.95,-342 507.95,-342"/>
<polygon fill="black" stroke="black" points="507.75,-345.5 517.75,-342 507.75,-338.5 507.75,-345.5"/>
</g>
<!-- frontend/src/components/Footer.module.css -->
<g id="node15" class="node">
<title>frontend/src/components/Footer.module.css</title>
<path fill="#fff7cc" stroke="#b7791f" d="M725.88,-306C725.88,-306 542.62,-306 542.62,-306 536.62,-306 530.62,-300 530.62,-294 530.62,-294 530.62,-282 530.62,-282 530.62,-276 536.62,-270 542.62,-270 542.62,-270 725.88,-270 725.88,-270 731.88,-270 737.88,-276 737.88,-282 737.88,-282 737.88,-294 737.88,-294 737.88,-300 731.88,-306 725.88,-306"/>
<text xml:space="preserve" text-anchor="middle" x="634.25" y="-284.12" font-family="Helvetica,sans-Serif" font-size="10.00">frontend/src/components/Footer.module.css</text>
</g>
<!-- frontend/src/components/Footer.jsx&#45;&gt;frontend/src/components/Footer.module.css -->
<g id="edge14" class="edge">
<title>frontend/src/components/Footer.jsx&#45;&gt;frontend/src/components/Footer.module.css</title>
<path fill="none" stroke="black" d="M473.06,-288C487.94,-288 503.65,-288 519.2,-288"/>
<polygon fill="black" stroke="black" points="518.95,-291.5 528.95,-288 518.95,-284.5 518.95,-291.5"/>
</g>
<!-- frontend/src/components/Hero.module.css -->
<g id="node16" class="node">
<title>frontend/src/components/Hero.module.css</title>
<path fill="#fff7cc" stroke="#b7791f" d="M722.88,-252C722.88,-252 545.62,-252 545.62,-252 539.62,-252 533.62,-246 533.62,-240 533.62,-240 533.62,-228 533.62,-228 533.62,-222 539.62,-216 545.62,-216 545.62,-216 722.88,-216 722.88,-216 728.88,-216 734.88,-222 734.88,-228 734.88,-228 734.88,-240 734.88,-240 734.88,-246 728.88,-252 722.88,-252"/>
<text xml:space="preserve" text-anchor="middle" x="634.25" y="-230.12" font-family="Helvetica,sans-Serif" font-size="10.00">frontend/src/components/Hero.module.css</text>
</g>
<!-- frontend/src/components/Hero.jsx&#45;&gt;frontend/src/components/Hero.module.css -->
<g id="edge15" class="edge">
<title>frontend/src/components/Hero.jsx&#45;&gt;frontend/src/components/Hero.module.css</title>
<path fill="none" stroke="black" d="M470.33,-234C486.84,-234 504.47,-234 521.81,-234"/>
<polygon fill="black" stroke="black" points="521.63,-237.5 531.63,-234 521.63,-230.5 521.63,-237.5"/>
</g>
<!-- frontend/src/components/Nav.module.css -->
<g id="node17" class="node">
<title>frontend/src/components/Nav.module.css</title>
<path fill="#fff7cc" stroke="#b7791f" d="M720.62,-198C720.62,-198 547.88,-198 547.88,-198 541.88,-198 535.88,-192 535.88,-186 535.88,-186 535.88,-174 535.88,-174 535.88,-168 541.88,-162 547.88,-162 547.88,-162 720.62,-162 720.62,-162 726.62,-162 732.62,-168 732.62,-174 732.62,-174 732.62,-186 732.62,-186 732.62,-192 726.62,-198 720.62,-198"/>
<text xml:space="preserve" text-anchor="middle" x="634.25" y="-176.12" font-family="Helvetica,sans-Serif" font-size="10.00">frontend/src/components/Nav.module.css</text>
</g>
<!-- frontend/src/components/Nav.jsx&#45;&gt;frontend/src/components/Nav.module.css -->
<g id="edge16" class="edge">
<title>frontend/src/components/Nav.jsx&#45;&gt;frontend/src/components/Nav.module.css</title>
<path fill="none" stroke="black" d="M467.96,-180C485.94,-180 505.34,-180 524.32,-180"/>
<polygon fill="black" stroke="black" points="524.23,-183.5 534.23,-180 524.23,-176.5 524.23,-183.5"/>
</g>
<!-- frontend/src/components/Projects.module.css -->
<g id="node18" class="node">
<title>frontend/src/components/Projects.module.css</title>
<path fill="#fff7cc" stroke="#b7791f" d="M730.38,-144C730.38,-144 538.12,-144 538.12,-144 532.12,-144 526.12,-138 526.12,-132 526.12,-132 526.12,-120 526.12,-120 526.12,-114 532.12,-108 538.12,-108 538.12,-108 730.38,-108 730.38,-108 736.38,-108 742.38,-114 742.38,-120 742.38,-120 742.38,-132 742.38,-132 742.38,-138 736.38,-144 730.38,-144"/>
<text xml:space="preserve" text-anchor="middle" x="634.25" y="-122.12" font-family="Helvetica,sans-Serif" font-size="10.00">frontend/src/components/Projects.module.css</text>
</g>
<!-- frontend/src/components/Projects.jsx&#45;&gt;frontend/src/components/Projects.module.css -->
<g id="edge17" class="edge">
<title>frontend/src/components/Projects.jsx&#45;&gt;frontend/src/components/Projects.module.css</title>
<path fill="none" stroke="black" d="M477.87,-126C489.78,-126 502.14,-126 514.45,-126"/>
<polygon fill="black" stroke="black" points="514.22,-129.5 524.22,-126 514.22,-122.5 514.22,-129.5"/>
</g>
<!-- frontend/src/components/Stats.module.css -->
<g id="node19" class="node">
<title>frontend/src/components/Stats.module.css</title>
<path fill="#fff7cc" stroke="#b7791f" d="M724,-90C724,-90 544.5,-90 544.5,-90 538.5,-90 532.5,-84 532.5,-78 532.5,-78 532.5,-66 532.5,-66 532.5,-60 538.5,-54 544.5,-54 544.5,-54 724,-54 724,-54 730,-54 736,-60 736,-66 736,-66 736,-78 736,-78 736,-84 730,-90 724,-90"/>
<text xml:space="preserve" text-anchor="middle" x="634.25" y="-68.12" font-family="Helvetica,sans-Serif" font-size="10.00">frontend/src/components/Stats.module.css</text>
</g>
<!-- frontend/src/components/Stats.jsx&#45;&gt;frontend/src/components/Stats.module.css -->
<g id="edge18" class="edge">
<title>frontend/src/components/Stats.jsx&#45;&gt;frontend/src/components/Stats.module.css</title>
<path fill="none" stroke="black" d="M471.35,-72C487.22,-72 504.09,-72 520.72,-72"/>
<polygon fill="black" stroke="black" points="520.67,-75.5 530.67,-72 520.67,-68.5 520.67,-75.5"/>
</g>
<!-- frontend/src/main.jsx -->
<g id="node20" class="node">
<title>frontend/src/main.jsx</title>
<path fill="#cfe8ff" stroke="#2b6cb0" stroke-width="2" d="M95.5,-319C95.5,-319 12,-319 12,-319 6,-319 0,-313 0,-307 0,-307 0,-295 0,-295 0,-289 6,-283 12,-283 12,-283 95.5,-283 95.5,-283 101.5,-283 107.5,-289 107.5,-295 107.5,-295 107.5,-307 107.5,-307 107.5,-313 101.5,-319 95.5,-319"/>
<text xml:space="preserve" text-anchor="middle" x="53.75" y="-297.12" font-family="Helvetica,sans-Serif" font-size="10.00">frontend/src/main.jsx</text>
</g>
<!-- frontend/src/main.jsx&#45;&gt;frontend/src/App.jsx -->
<g id="edge19" class="edge">
<title>frontend/src/main.jsx&#45;&gt;frontend/src/App.jsx</title>
<path fill="none" stroke="black" d="M108.42,-286.11C117.41,-283.61 126.81,-281 136,-278.45"/>
<polygon fill="black" stroke="black" points="136.92,-281.83 145.62,-275.78 135.05,-275.08 136.92,-281.83"/>
</g>
<!-- frontend/src/index.css -->
<g id="node21" class="node">
<title>frontend/src/index.css</title>
<path fill="#fff7cc" stroke="#b7791f" d="M244.25,-333C244.25,-333 155.5,-333 155.5,-333 149.5,-333 143.5,-327 143.5,-321 143.5,-321 143.5,-309 143.5,-309 143.5,-303 149.5,-297 155.5,-297 155.5,-297 244.25,-297 244.25,-297 250.25,-297 256.25,-303 256.25,-309 256.25,-309 256.25,-321 256.25,-321 256.25,-327 250.25,-333 244.25,-333"/>
<text xml:space="preserve" text-anchor="middle" x="199.88" y="-311.12" font-family="Helvetica,sans-Serif" font-size="10.00">frontend/src/index.css</text>
</g>
<!-- frontend/src/main.jsx&#45;&gt;frontend/src/index.css -->
<g id="edge20" class="edge">
<title>frontend/src/main.jsx&#45;&gt;frontend/src/index.css</title>
<path fill="none" stroke="black" d="M108.42,-306.21C116.05,-306.95 123.98,-307.73 131.83,-308.49"/>
<polygon fill="black" stroke="black" points="131.44,-311.97 141.73,-309.45 132.12,-305 131.44,-311.97"/>
</g>
<!-- src/main.jsx -->
<g id="node22" class="node">
<title>src/main.jsx</title>
<path fill="#cfe8ff" stroke="#2b6cb0" stroke-width="2" d="M76.38,-252C76.38,-252 31.12,-252 31.12,-252 25.12,-252 19.12,-246 19.12,-240 19.12,-240 19.12,-228 19.12,-228 19.12,-222 25.12,-216 31.12,-216 31.12,-216 76.38,-216 76.38,-216 82.38,-216 88.38,-222 88.38,-228 88.38,-228 88.38,-240 88.38,-240 88.38,-246 82.38,-252 76.38,-252"/>
<text xml:space="preserve" text-anchor="middle" x="53.75" y="-230.12" font-family="Helvetica,sans-Serif" font-size="10.00">src/main.jsx</text>
</g>
<!-- src/main.jsx&#45;&gt;frontend/src/App.jsx -->
<g id="edge21" class="edge">
<title>src/main.jsx&#45;&gt;frontend/src/App.jsx</title>
<path fill="none" stroke="black" d="M89.27,-240.47C103.35,-243.1 120.07,-246.24 136.16,-249.25"/>
<polygon fill="black" stroke="black" points="135.2,-252.63 145.67,-251.03 136.49,-245.75 135.2,-252.63"/>
</g>
<!-- src/index.css -->
<g id="node23" class="node">
<title>src/index.css</title>
<path fill="#f7fafc" stroke="#4a5568" d="M225.12,-225C225.12,-225 174.62,-225 174.62,-225 168.62,-225 162.62,-219 162.62,-213 162.62,-213 162.62,-201 162.62,-201 162.62,-195 168.62,-189 174.62,-189 174.62,-189 225.12,-189 225.12,-189 231.12,-189 237.12,-195 237.12,-201 237.12,-201 237.12,-213 237.12,-213 237.12,-219 231.12,-225 225.12,-225"/>
<text xml:space="preserve" text-anchor="middle" x="199.88" y="-203.12" font-family="Helvetica,sans-Serif" font-size="10.00">src/index.css</text>
</g>
<!-- src/main.jsx&#45;&gt;src/index.css -->
<g id="edge22" class="edge">
<title>src/main.jsx&#45;&gt;src/index.css</title>
<path fill="none" stroke="black" d="M89.27,-227.53C107.81,-224.06 130.94,-219.73 151.17,-215.94"/>
<polygon fill="black" stroke="black" points="151.7,-219.4 160.88,-214.12 150.41,-212.52 151.7,-219.4"/>
</g>
</g>
</svg>
